<svg width="32" height="32" viewBox="0 0 32 32" fill="none" xmlns="http://www.w3.org/2000/svg">
  <style>
    path { fill: #4a5944; }
    @media (prefers-color-scheme: dark) {
      path { fill: #9ab594; }
    }
  </style>
  <path fill-rule="evenodd" clip-rule="evenodd" d="M16 32C24.8366 32 32 24.8366 32 16C32 7.16344 24.8366 0 16 0C7.16344 0 0 7.16344 0 16C0 24.8366 7.16344 32 16 32ZM15.5 8C12.4624 8 10 10.4624 10 13.5C10 16.5376 12.4624 19 15.5 19H18V21C18 22.1046 17.1046 23 16 23C14.8954 23 14 22.1046 14 21H10C10 24.3137 12.6863 27 16 27C19.3137 27 22 24.3137 22 21V13.5C22 10.4624 19.5376 8 16.5 8H15.5ZM18 15V12H15.5C14.6716 12 14 12.6716 14 13.5C14 14.3284 14.6716 15 15.5 15H18Z"/>
</svg> 